Coordinates
version=1
nRows=19
nColumns=36
inDegrees=yes

Units are S.I. units (second, meters, Newtons, ...)
If the header above contains a line with 'inDegrees', this indicates whether rotational values are in degrees (yes) or radians (no).

endheader
time	pelvis_tilt	pelvis_list	pelvis_rotation	pelvis_tx	pelvis_ty	pelvis_tz	hip_flexion_r	hip_adduction_r	hip_rotation_r	knee_angle_r	knee_angle_r_beta	ankle_angle_r	subtalar_angle_r	mtp_angle_r	hip_flexion_l	hip_adduction_l	hip_rotation_l	knee_angle_l	knee_angle_l_beta	ankle_angle_l	subtalar_angle_l	mtp_angle_l	lumbar_extension	lumbar_bending	lumbar_rotation	arm_flex_r	arm_add_r	arm_rot_r	elbow_flex_r	pro_sup_r	arm_flex_l	arm_add_l	arm_rot_l	elbow_flex_l	pro_sup_l
      0.00000000	     14.74994409	     -1.43919611	      0.99037125	     -0.58042846	      0.57602520	     -0.61314162	     75.86950355	     -5.47115448	      3.51276006	     99.73772869	      1.74075175	     15.49311145	      0.26141948	     -4.49551013	     77.90296824	     -6.14014799	      4.04649904	     99.49248518	      1.73647145	     11.94036332	      1.09696733	     -4.49551013	    -21.94715003	      2.05831582	      2.46296552	     -5.93104708	     -5.07977993	     -3.42352249	    115.98627600	    111.57887954	     -2.58947897	     -4.05610447	      2.68171554	    106.90298226	    109.14435559
      0.01000000	     14.73581655	     -1.45340532	      1.01240399	     -0.58038973	      0.57597385	     -0.61317672	     75.88160338	     -5.50985180	      3.50913830	     99.76056314	      1.74115029	     15.79839177	      0.86250205	     -4.48786131	     77.92701473	     -6.12684984	      4.10442825	     99.51527276	      1.73686917	     12.22033082	      1.64664593	     -4.48786131	    -21.91724287	      2.08412263	      2.52742892	     -5.99700583	     -5.05778825	     -3.50732643	    116.06560220	    111.14031951	     -2.55121770	     -4.08138661	      2.84116096	    106.81585377	    108.90804140
      0.02000000	     14.79181364	     -1.43250681	      1.00890404	     -0.58051694	      0.57609454	     -0.61318338	     75.81892457	     -5.49882523	      3.49607792	     99.72773362	      1.74057731	     15.43469081	      0.14250586	     -4.99239900	     77.85954557	     -6.11334172	      4.04543990	     99.48812664	      1.73639538	     11.88217652	      0.97381802	     -4.99239900	    -22.04599113	      2.07121532	      2.43760462	     -5.89929432	     -5.10298471	     -3.41999442	    116.00980160	    111.47298452	     -2.62283501	     -4.03605755	      2.58334236	    106.97619354	    109.23610486
      0.03000000	     14.82219923	     -1.40128348	      1.00109799	     -0.58056037	      0.57611319	     -0.61316089	     75.80527185	     -5.50443161	      3.54084999	     99.74593094	      1.74089491	     15.49965707	      0.26177897	     -5.26799841	     77.82068419	     -6.10977873	      4.02249688	     99.48393861	      1.73632228	     11.92761935	      1.08735748	     -5.26799841	    -22.13093784	      2.06085059	      2.42218953	     -5.90444873	     -5.05701450	     -3.36268389	    116.01040511	    111.69324657	     -2.64970924	     -4.02995040	      2.57178091	    107.00764586	    108.97112699
      0.04000000	     14.83461564	     -1.39310372	      0.99046530	     -0.58068952	      0.57616692	     -0.61308468	     75.78324384	     -5.46709488	      3.56409797	     99.70799406	      1.74023279	     15.50599645	      0.27675847	     -5.57749170	     77.79034683	     -6.12489462	      4.02104143	     99.43615831	      1.73548836	     11.93801407	      1.09786987	     -5.57749170	    -22.21872780	      2.06056835	      2.39696812	     -5.82322498	     -5.04411632	     -3.33375112	    116.07661471	    111.50294500	     -2.65647535	     -4.08201071	      2.55375637	    107.00739603	    109.21267720
      0.05000000	     14.89606802	     -1.37921390	      0.98869049	     -0.58070103	      0.57624141	     -0.61310021	     75.72620921	     -5.48580993	      3.57539375	     99.73067796	      1.74062870	     15.50213567	      0.30184053	     -5.70049232	     77.72917725	     -6.12910652	      3.99484559	     99.46702694	      1.73602712	     11.90935491	      1.10378767	     -5.70049232	    -22.29464863	      2.04804459	      2.41731248	     -5.86033533	     -5.02364632	     -3.38284817	    116.06185558	    111.74614926	     -2.67417143	     -4.06612609	      2.55871118	    107.04424994	    108.83098150
      0.06000000	     14.94134391	     -1.40325142	      0.99470468	     -0.58078389	      0.57636684	     -0.61308092	     75.65818460	     -5.47524634	      3.54200830	     99.70881746	      1.74024716	     15.48915207	      0.25001274	     -5.95888432	     77.67969223	     -6.13753426	      4.01225682	     99.45681668	      1.73584891	     11.88592403	      1.06213698	     -5.95888432	    -22.37018456	      2.06900418	      2.40789628	     -5.83184808	     -5.01034393	     -3.35027188	    116.03368028	    111.63514640	     -2.67736747	     -4.06405169	      2.48934829	    107.02048991	    108.99347202
      0.07000000	     14.96501625	     -1.36406731	      0.99356453	     -0.58082989	      0.57643738	     -0.61313860	     75.63467687	     -5.50827304	      3.59396693	     99.71479300	      1.74035145	     15.63325045	      0.48796646	     -6.19181515	     77.62413309	     -6.11265269	      3.98438987	     99.44014213	      1.73555789	     12.02597634	      1.23966487	     -6.19181515	    -22.39797638	      2.00456048	      2.41852339	     -5.82818369	     -5.03198134	     -3.36921374	    115.97870066	    111.63136225	     -2.67809053	     -4.03082836	      2.46675439	    107.02541812	    108.95615117
      0.08000000	     15.01222643	     -1.33603196	      1.00764284	     -0.58091572	      0.57658286	     -0.61319777	     75.58056419	     -5.53614249	      3.60373730	     99.70127439	      1.74011551	     15.50326083	      0.30180628	     -6.38319872	     77.55301854	     -6.07263443	      3.94294641	     99.41390742	      1.73510001	     11.91328662	      0.98838287	     -6.38319872	    -22.47773199	      1.97356343	      2.36900945	     -5.80248566	     -4.99243852	     -3.39998466	    115.94163840	    111.80533764	     -2.68360690	     -4.02789828	      2.37237390	    107.03044370	    108.80340479
      0.09000000	     15.04381734	     -1.33324315	      0.97744084	     -0.58095065	      0.57665281	     -0.61317168	     75.53881059	     -5.50163475	      3.61793571	     99.67994046	      1.73974316	     15.54587745	      0.35593199	     -6.57947686	     77.52179377	     -6.14991292	      3.88715045	     99.43651584	      1.73549460	     11.93617841	      1.01696987	     -6.57947686	    -22.57381769	      1.96476742	      2.40978925	     -5.85121829	     -4.94179316	     -3.46390540	    116.02224573	    111.62939188	     -2.69310876	     -4.00514469	      2.26997685	    107.07625521	    109.09985351
      0.10000000	     15.15656525	     -1.32014172	      0.99073630	     -0.58110469	      0.57682599	     -0.61327473	     75.41116974	     -5.52821030	      3.63129480	     99.67934898	      1.73973284	     15.59600377	      0.37074418	     -6.67046041	     77.41781585	     -6.18688485	      3.82841608	     99.42972374	      1.73537605	     11.92433063	      1.11869407	     -6.67046041	    -22.76196791	      1.96295752	      2.28365445	     -5.69826131	     -4.99283460	     -3.29946955	    115.99792726	    111.76526732	     -2.73238364	     -3.99934949	      2.28138479	    107.27724126	    107.65889884
      0.11000000	     15.15612451	     -1.31387666	      0.97213243	     -0.58115099	      0.57683769	     -0.61320989	     75.42336404	     -5.50666702	      3.63832934	     99.68653904	      1.73985833	     15.59343229	      0.43054851	     -6.73256771	     77.43347150	     -6.25089720	      3.79344851	     99.44143536	      1.73558046	     11.92629959	      1.24624174	     -6.73256771	    -22.76070721	      1.91117804	      2.37312259	     -5.73610217	     -4.97423054	     -3.46167135	    115.91902460	    111.90090928	     -2.66929900	     -3.96923984	      2.23569694	    107.14254487	    108.09845321
      0.12000000	     15.17150801	     -1.30076131	      0.98546275	     -0.58120620	      0.57690963	     -0.61318601	     75.40092672	     -5.52733416	      3.65771029	     99.69141170	      1.73994337	     15.77678242	      0.73348832	     -6.80053167	     77.40472884	     -6.23896708	      3.80086757	     99.43094346	      1.73539734	     12.10050890	      1.54195238	     -6.80053167	    -22.80072035	      1.87140635	      2.41971004	     -5.79626349	     -4.89407623	     -3.52899840	    115.91661178	    111.50188410	     -2.59120950	     -3.96497476	      2.22883913	    107.01731178	    108.43692129
      0.13000000	     15.29235428	     -1.26708708	      0.97411590	     -0.58147255	      0.57714926	     -0.61316067	     75.26886382	     -5.51207606	      3.68929166	     99.66010657	      1.73939699	     15.65854676	      0.49366324	     -6.82979909	     77.24521593	     -6.22468762	      3.76060843	     99.38483078	      1.73459252	     11.97635618	      1.31257744	     -6.82979909	    -23.07339500	      1.83543922	      2.38008541	     -5.70237861	     -4.93020159	     -3.49119314	    116.01396672	    111.55236836	     -2.56544421	     -3.98562543	      2.14967831	    107.10158166	    108.78409202
      0.14000000	     15.36528925	     -1.20922820	      0.95751992	     -0.58168716	      0.57719909	     -0.61311965	     75.20951110	     -5.51104663	      3.77388463	     99.65174560	      1.73925107	     15.79155482	      0.74163980	     -6.94639247	     77.15864035	     -6.22331337	      3.70436075	     99.38584725	      1.73461026	     12.08699318	      1.52325056	     -6.94639247	    -23.28967639	      1.79280718	      2.34865969	     -5.63372267	     -4.90890675	     -3.49533247	    116.07238358	    111.80172503	     -2.53762551	     -4.01277342	      2.13863471	    107.26703009	    107.99567774
      0.15000000	     15.42820224	     -1.19105338	      0.95734947	     -0.58190783	      0.57717487	     -0.61306003	     75.18115219	     -5.51337290	      3.77461339	     99.67848228	      1.73971771	     15.66819916	      0.67606904	     -7.02340659	     77.09342805	     -6.20880412	      3.69460985	     99.36071324	      1.73417159	     12.00960169	      1.42954435	     -7.02340659	    -23.47101560	      1.78442880	      2.29743784	     -5.54610220	     -4.86389361	     -3.47822475	    116.10667081	    111.78771505	     -2.53084468	     -4.03187231	      2.11271658	    107.39592292	    107.57845286
      0.16000000	     15.49953966	     -1.19665162	      0.94719272	     -0.58211437	      0.57728198	     -0.61297109	     75.10510216	     -5.47174740	      3.74952224	     99.64335019	      1.73910454	     15.40204516	      0.27997671	     -7.09621351	     77.01681386	     -6.23071200	      3.67872195	     99.32425028	      1.73353519	     11.79237001	      1.09513295	     -7.09621351	    -23.66915026	      1.76981091	      2.30362969	     -5.50195673	     -4.82093137	     -3.54405101	    116.16374571	    111.92532583	     -2.47726969	     -4.05592853	      1.99809780	    107.40324786	    108.14952145
      0.17000000	     15.51243765	     -1.23036949	      0.96078667	     -0.58216117	      0.57739674	     -0.61306683	     75.06564412	     -5.47970786	      3.70736635	     99.61132038	      1.73854551	     15.40782208	      0.27309279	     -7.11873123	     77.01084306	     -6.22898928	      3.70246896	     99.33241237	      1.73367765	     11.79762240	      1.10686973	     -7.11873123	    -23.76830527	      1.78606512	      2.26847536	     -5.43985567	     -4.83066412	     -3.61197459	    116.00526173	    112.35631690	     -2.49667510	     -4.02605437	      1.98826297	    107.62114661	    106.61801633
      0.18000000	     15.53041409	     -1.25215309	      0.96346574	     -0.58229665	      0.57747515	     -0.61311184	     75.02496886	     -5.44699356	      3.70471277	     99.57686106	      1.73794408	     15.42503909	      0.17564628	     -7.13220086	     76.98907233	     -6.21618381	      3.73405756	     99.30126801	      1.73313408	     11.77578024	      1.03909481	     -7.13220086	    -23.91963947	      1.79575361	      2.28542644	     -5.39819720	     -4.85557476	     -3.57631390	    116.10753227	    111.91521305	     -2.43228397	     -4.04152935	      2.02971216	    107.69754590	    106.34866522
